<svg version="1" xmlns="http://www.w3.org/2000/svg" width="536" height="536" viewBox="0 0 402.000000 402.000000"><path d="M0 53.1v53.2l2-2.6c1.1-1.4 2-3.1 2-3.7 0-1.9 3.2-3.9 6.2-4 2.5 0 4.6-2.9 4-5.3-.1-.4.4-.7 1.1-.7 2.7-.1 4.9-5.1 5.1-11.6.2-4.6.8-7.2 2.2-9.1 1.9-2.7 1.9-2.9.3-4.5-1-.9-2.1-3.8-2.5-6.3-.8-5.6 1.1-10.5 5.1-13.1 1.4-.9 2.5-2.2 2.5-2.9 0-.7.7-1.5 1.4-1.8.8-.3 2-2.4 2.6-4.5.5-2.2 1.7-4.5 2.5-5.2.8-.7 1.5-2.7 1.5-4.4 0-4.4 5-10.2 10-11.7 3.4-1 3.8-1.5 2.9-3-1-2 .9-8.1 3.1-9.4C55.1.6 48.9 0 25.3 0H0v53.1zM65.5 1c.4.6 1.1.8 1.6.5C68.5.6 68.2 0 66.4 0c-.8 0-1.2.5-.9 1zM100.7 3.5c-3 3.8-7.6 5.2-11.7 3.7-2.2-.8-2.7-.5-4.3 2-.9 1.6-3.3 3.6-5.2 4.4-3.1 1.2-3.9 1.2-7.5-.2-2.4-1-4.5-1.3-5-.8-.4.5-1 3.5-1.2 6.7l-.5 5.8 3-.7c1.6-.3 4.1-.8 5.6-1 7.1-.9 9-1.6 8.4-3.1-.5-1.2-.7-1.2-1.4-.1-.5.7-.9.8-.9.3 0-.6.5-1.7 1-2.5.7-1.1 1-1.1 1-.2 0 .7.5 1 1.2.6.6-.4.8-.3.4.4-.3.6-.2 1.3.4 1.7.5.3 1 0 1-.8 0-2.1 3.8-6.5 6.8-8.1 1.5-.8 6.4-1.7 10.9-2.1 8.1-.7 8.3-.7 10.8 2 2.8 3.2 3.4 8.9 1.1 12-1 1.4-1.1 2.4-.3 3.5 1.5 2.5 0 8.4-2.8 11-1.4 1.3-2.5 3.1-2.5 4.1 0 1-1.3 3-2.9 4.6-2.8 2.9-2.8 2.9-1 5.2 3.5 4.3 1.4 11.7-4.1 14.6-1.7.9-3 2.3-3 3.3 0 .9-.6 2.8-1.3 4.2-1.7 3.4-1.3 14.7.6 16.8 4.3 4.9 4.6 8.5 1.4 13.3l-2.3 3.4 2.3 3.4c2.9 4.3 2.9 7.9-.1 12.4-3.6 5.2-3.9 7.1-1.7 9.2 3.3 2.9 4.4 7.7 2.8 11.6-1.2 3.1-1.1 3.6 1.1 6.9 1.6 2.4 2.2 4.4 1.9 6.5-.4 2.6 0 3.2 2.7 4.5 5.2 2.5 7.6 7.2 7.6 15.2 0 12.4-4.9 17.8-16 17.8-6.3 0-7.3.9-4.5 4 .9 1 1.9 3.5 2.2 5.6.3 2.2 1.6 5.2 2.7 6.7 2.8 3.8 2.7 9.8-.1 13.4-1.2 1.5-3.6 5.2-5.2 8.1-2.5 4.5-2.8 5.7-2 8.6 1 3.7-.1 7.8-2.8 10.9-1.9 2.1-2.5 13.7-.7 13.7.6 0 2.2.8 3.5 1.9 1.3 1 2.8 1.9 3.2 1.9.5 0 1.2.4 1.5.8.4.4.1.4-.5 0-.7-.4-1.3-.2-1.3.3 0 .6.4 1.1 1 1.1.5 0 .6.7.3 1.7-.4 1-.2 1.4.4 1 .6-.4 1.4 0 1.7.9.8 2.2.8 2.6-.4 1.9-1.9-1.2-1 .6 1.8 3.5 3.5 3.7 6.9 4.7 7.5 2.3.4-1.6.5-1.5.6.2 0 1.1-.3 2.6-.8 3.3-.6 1 .6 2.9 4 6.2 4.6 4.6 4.7 4.9 3.7 8.3-.7 2.4-2.2 4.1-4.4 5.3-1.9 1-3.4 1.9-3.4 2 0 .1.7 1.8 1.5 3.7 1.7 4.1 2.1 10.2.5 7.7-.6-1-.8-.3-.3 2.3.3 2.1.2 3.7-.3 3.5-.5-.1-2 .4-3.2 1.1-2.3 1.2-2.3 1.1-1.7-1.1.6-1.8.5-2.1-.6-1.2-1.8 1.3-5.3 1-8.5-.6-2.2-1.2-2.8-2.4-2.7-5.6 0-.7-1.5-.1-3.5 1.2-1.9 1.3-3.9 2.4-4.4 2.4-.5 0-.2 1.3.7 3 1.9 3.7 1.9 8.9 0 11.7-1.4 2-1.2 2.4 2 5.6 3 3 3.5 4.2 3.5 8 0 2.9-.7 5.3-2 7-1.7 2.1-1.8 3-.9 5.6.7 2 .8 4 .1 5.8-.8 2.5-.9 2.3-.8-1.9.1-5.2-1.8-8.5-3-5.2-1 2.7-5.5 7.4-7.1 7.4-1.1 0-1.1.4.1 2.2.9 1.2 1.6 3.8 1.6 5.8 0 2.8.6 3.8 3 5.2 4.7 2.7 5.5 5.5 3.6 12.2-.9 3.1-2.1 5.6-2.6 5.6-.6 0-1 .4-1 1 0 .7 19.3 1 55.8 1 55.4 0 55.8 0 57.2-2.1.8-1.1 2.5-3.2 3.8-4.5 1.2-1.4 2.2-2.9 2.2-3.5 0-.5 1.1-1.5 2.5-2.1 1.5-.7 2.4-1.7 2.1-2.5-.3-.7 1.7-3.7 4.5-6.6 2.8-2.8 6.2-6.5 7.7-8 3.2-3.4 5-3.2 7.5 1 1.7 3 1.8 3.5.3 6.4-2.1 4.2-2 4.9.4 4.9 2.5 0 3.8 3.2 4.7 11.1.4 4 1 5.9 1.9 5.9.8 0 1.4-.1 1.4-.3 0-.1.5-2.9 1-6.2.6-3.3 1.7-10.4 2.5-15.8s2.1-10.4 2.9-11.2c.8-.8 3.3-1.9 5.6-2.4s4.7-1.4 5.3-2c1.6-1.6 5.4-1.4 6 .3.3.9 1.5 1.2 3.1.9 2.2-.5 2.8 0 4.1 2.9l1.4 3.5 10.3.6c10.7.7 20.1 2.9 22.9 5.3 3.3 3 6.9 1.2 11.3-5.8l1.7-2.6-8.8-4.4c-10.4-5.1-22.9-14.1-26.9-19.4-5.4-7-9.5-11-10.1-9.7-.2.7-1.2 1.3-2.1 1.3-.9.1-2.8 1-4.1 2.1-2.1 1.7-2.2 2.2-1 3 .7.5 1.7.9 2 .9 1.1 0 .7 8.5-.5 9.2-.7.5-.6.8.3.8 1.1 0 .9.6-.7 2-2.9 2.8-7.3 2.6-10.2-.5l-2.3-2.5 4.4-1.9c3.7-1.7 3.9-1.9 1.3-1.4-2.5.4-3.2.1-3.6-1.5-.3-1.1-.1-2.6.6-3.3.8-.9.7-1.1-.5-.6-1.1.3-2.9-.7-5-2.9-2.5-2.6-2.9-3.4-1.6-3.4.9 0 2.6.9 3.7 2 2.5 2.5 2.5 2.5 6.9-.9 2-1.5 5-3.6 6.6-4.5 1.7-.9 3.7-2 4.5-2.5.8-.5 5.9-3.1 11.3-5.7 7.4-3.7 11.8-6.7 18.2-12.7 4.6-4.3 9.4-9.2 10.6-10.9l2.2-3-3 1.6c-1.7.8-4.4 1.7-5.9 2-1.6.2-4.9.8-7.4 1.1-2.5.4-5.1 1.2-5.8 1.8-.7.5-1.3.8-1.5.6-.1-.2-1-1.8-1.9-3.4-1.2-2.1-2.3-2.9-3.8-2.7-1.9.3-2.1 0-1.5-2 .8-2.4 7.4-13.1 9.9-16 .8-.9 2.5-3.6 3.7-5.9 1.1-2.3 4.5-7.7 7.5-12 3-4.4 5.4-8.2 5.4-8.6.1-.5 1-1.9 2.1-3.2 1.7-2.1 2.2-2.2 3-1 .5.7.9 1.6.9 1.9 0 .3 6 .6 13.3.7 24.5.3 76.2 2.2 79.5 2.9l3.2.6V0H261.5C122.9 0 121 0 117.8 2c-4.2 2.5-8.8 2.6-12 .1L103.4.2l-2.7 3.3zm174 131.1c-.3.3-1.2.4-1.9.1-.8-.3-.5-.6.6-.6 1.1-.1 1.7.2 1.3.5zm-43.2 1.4c.3.5.1 1-.4 1-.6 0-1.1-.5-1.1-1 0-.6.2-1 .4-1 .3 0 .8.4 1.1 1zm60.2 1c1.3 0 2.3.4 2.3.9s1 1.3 2.3 1.7c3.2 1 7.9 5.2 12.2 10.8 2.9 3.8 3.7 5.9 3.9 9.5l.1 4.6-5.4-.3c-3-.1-5.7-.5-6-.8-.3-.4.8-.5 2.5-.2 3.1.4 3.2.4 1.7-1.9-.8-1.3-2-2.3-2.7-2.3-.6 0-.4.5.4 1s1.1 1 .6 1c-.6 0-2-1-3.3-2.2-1.3-1.2-3.8-2.2-5.8-2.3-1.9-.1-4.2-.8-5.1-1.6-.9-.7-2.2-1.4-3-1.6-3.4-.7-4-.9-5.4-1.8-.8-.5-2.9-.9-4.7-.8-1.8 0-3.3-.3-3.3-.8s-.6-.6-1.4-.3c-.8.3-2.4.1-3.5-.6-1.7-.8-2.1-.8-2.1.4 0 1-1 1.3-3.2 1.2-4.9-.4-5-.5-4.2-1.9.4-.6-.1-.4-1.2.5-1.6 1.4-2.3 1.5-3.2.6-1.5-1.5-1.6-3.8-.2-3.8.6 0 1 .4 1 1 0 .5.4 1 .9 1 .6 0 .8-.9.6-2.1-.3-1.7-.1-1.9 1-.9 1 .8 1.5.8 2.1-.1.5-.8.3-.9-.6-.4-.9.6-1.1.4-.6-.4.5-.7 1.4-1 2.1-.7.7.2 1.6-.1 1.9-.9.3-.8 2.2-1.7 4.3-2.1 2.1-.3 4.6-1.4 5.6-2.2 2.1-1.9 12.8-2.5 13.9-.8.5.7.8.3.8-.9 0-1.5.3-1.6 1.2-.7.7.7 2.2 1.2 3.5 1.2zm-61.4 1.2c.9 0 1.7.6 1.7 1.4 0 1.7 1.2 1.8 2.7.3 1.8-1.8 7.9 2.3 6.6 4.4-.4.6.5.7 2.1.3 1.6-.4 2.6-.2 2.6.4 0 .6-.4.8-1 .5-.5-.3-1-.2-1 .3 0 .6.7 1.2 1.5 1.6.8.3 1.5 1.1 1.5 1.8 0 .9-.3.9-1.2 0-1.5-1.5-7.2-1.6-6.3-.1.4.6-.1 1.6-1.1 2.4-1.5 1.1-2.2 1-4.4-.3-1.4-.9-2.8-2.1-3.1-2.6-.4-.5-1.2-.5-1.8-.1-.7.4-2.3-.5-3.8-2.2-1.4-1.5-2.2-2.3-1.9-1.6.3.6.3 1.4-.2 1.7-.4.2-.9-.5-.9-1.6-.2-1.5.3-1.9 1.7-1.5 1.7.4 1.8.2.9-1.4-.5-1-1.4-1.9-1.9-1.9-.6 0-1-.7-1-1.6 0-1.2.6-1.4 3.3-.8 1.7.4 4 .7 5 .6zm158.4 6.4c1.2.8 2.8 1.4 3.5 1.5 2.2 0 5.8 5.5 6.6 10.1 1.3 7-.2 12.8-4.3 16.5-3 2.9-4.2 3.3-8.8 3.3-4.5 0-5.8-.4-7.8-2.6-1.3-1.4-3.6-3.2-5-4-1.5-.7-3.4-3.1-4.3-5.4-4-9.9-.2-18.8 9-20.8 4.4-1.1 7.9-.6 11.1 1.4zm-98.2 12.9c1.9 1.4 1.8 1.5-1.4.2-1.9-.7-3.7-1.9-3.9-2.6-.5-1.5 1.8-.5 5.3 2.4zm-113.6-1.3c0 .7-.4 2.2-.9 3.3-.6 1.6-.8 1.4-.7-1.3 0-1.7.4-3.2.9-3.2.4 0 .8.6.7 1.2zm13.8 1.4c-.3.3-1.2.4-1.9.1-.8-.3-.5-.6.6-.6 1.1-.1 1.7.2 1.3.5zm-3.7 1.5c0 .6-.7.8-1.5.5-.9-.3-1.8.1-2.2 1-.8 2.2.4 2.9 2.3 1.3 1.4-1.1 1.8-1.1 2.9.4 1.2 1.6 3 16.6 2.1 17.5-1.2 1.2-2.6-1.4-3.2-5.9-.4-2.7-1-5.2-1.5-5.5-.4-.2-.5-1.2-.2-2.1.4-1.1.2-1.4-.8-1.1-.8.3-1.6 1.3-1.7 2.3-.2 1 0 1.5.6 1.1.6-.3 1.3-.2 1.7.4.3.5 0 1-.8 1-1 0-1.2.9-.9 3.2.6 4.2 2.7 6.6 7.7 8.9 2.3 1.1 3.2 1.9 2.2 1.9-3.4 0-8.8-3.2-10.4-6.3-.8-1.7-1.8-6-2.1-9.4-.4-5.2-.1-6.7 1.3-8.3 2-2.2 4.5-2.7 4.5-.9zm109 .5c0 .2-.7.4-1.5.4s-1.5-.4-1.5-1c0-.5.7-.7 1.5-.4.8.4 1.5.8 1.5 1zm3.5 1.3c.3.5.2 1.2-.3 1.5-.5.3-.9-.1-.9-.9 0-1.7.3-1.9 1.2-.6zm38.6 2.1c2.6 1.4 2.5 6.9-.2 12.1-1.1 2.3-2.3 3.9-2.6 3.6-.3-.3.2-1.6 1.1-2.9.9-1.2 1.6-3.3 1.6-4.5 0-2-.4-2.3-2.7-1.7-3.6.9-4 1.3-2.4 2.3.8.6 1.1 1.9.7 3.7-.3 1.6-.2 3.5.3 4.3.8 1.2 1.3 1.2 3.5-.3l2.6-1.6v3.9c0 4.1 2.6 9.6 6.5 14.1 3.4 3.8 4.2 5.8 5.6 14.3 1.5 9 .3 17.5-3.1 21.7-1.2 1.4-2.3 3.3-2.7 4.2-.3 1-1.2 1.8-1.9 1.8-.8 0-1.4.4-1.4.9 0 3.6-9.8.7-12.1-3.5-.6-1.3-1.5-2.1-2-1.9-.4.3-.6-.3-.4-1.2.1-1-.3-3-1.1-4.4-.7-1.4-1.5-5.1-1.7-8.2-.6-8.2-3.2-10.8-6.6-6.5-2.5 3.1-4.4 1.5-3.7-3.1.4-2 1.1-7.1 1.7-11.4.5-4.3 1.4-8.9 1.9-10.2 1.1-2.9 3.5-3.2 4.9-.8 1.7 3 2.9-.2 1.8-4.6-.8-3-.7-4.4.6-7 .9-1.9 1.4-3.8 1.1-4.3-.3-.5-.3-2.4 0-4.2.8-4.4 6.5-6.8 10.7-4.6zm-44.8 1.7c-.7.2-1.9.2-2.5 0-.7-.3-.2-.5 1.2-.5s1.9.2 1.3.5zm7.7 1.8c3.3 1.9 2.1 1.9-2.1 0-1.9-.8-2.7-1.4-1.9-1.4.8 0 2.6.6 4 1.4zm-48.5 2.8c-.6 3.8 1 9.1 2.4 8.2.5-.3 1.2.3 1.6 1.4.8 2.6 4.9 5.2 8.3 5.2 8.7.1 17.7-1.2 19.5-2.9 1-.9 2.2-1.7 2.6-1.6 2.1.3 3.9-1 3.4-2.4-.4-1.4-.3-1.5.5-.3.9 1.3 1.5 1.2 4.4-.3 2-1.1 3.5-2.7 3.5-3.8.2-2.4 1-3.4 1.9-2.5.4.4.2 3.1-.4 6.2-.6 3-.9 6.8-.6 8.4.7 3.2-1 4.6-7.1 6.3-2.6.7-2.5.7.9.3 5.3-.6 8.9-4.3 11.2-11.3 1-3.1 1.7-6.2 1.6-6.8-.3-1.6 7.9-2.8 8.9-1.3.4.6.5 3.9.2 7.3-1.6 20.8-5.8 51-6.3 45.1-.1-1.3-6 8.1-6 9.6 0 .7-1 .5-2.5-.5-1.4-.9-3-1.4-3.6-1.1-.6.4-.7-.3-.3-2.1.4-1.6.7-3.4.6-4.1-.1-.7-.2-2.4-.3-3.8-.1-1.3-.5-2.2-.9-2-.4.3-1.1-.2-1.4-1-.4-1.3-1-1.4-2.6-.5-2.3 1.2-4 .6-4-1.6 0-.8-.7-1.4-1.6-1.4-.8 0-2.2-.7-3-1.5-.9-.8-1.2-1.5-.8-1.5.3 0 .1-.7-.6-1.5s-.9-2.2-.6-3.1c.6-1.5.4-1.5-1.1-.3s-1.6 1.2-1-.3c.3-1 .2-2-.4-2.4-.7-.4-.6-1 .1-1.9 1.3-1.5-1.5-2.5-7.2-2.5-2.3 0-5.1-1-7.4-2.5-2-1.4-4.2-2.5-4.9-2.5-1.8 0-1.1 4.6 1.5 10.3 2.4 5.3 2.2 6.4-.7 4.9-2.3-1.3-9.4 0-12.5 2.2-1.3.9-3.4 2.4-4.8 3.3-1.3 1-2.1 1.2-1.6.5.4-.6.3-1.2-.3-1.2s-2.2-1.7-3.5-3.8c-2.8-4.1-3.5-12.4-2.2-24.2 1.4-12.9 1.4-12.9 4.9-14l3.2-1-3.3.3c-1.8.2-3.1.1-2.9-.2.1-.3.9-1.9 1.7-3.5 1.3-2.5 1.8-2.8 5.3-2.3 5.5.8 6.6 2.2 3.8 4.8-1.4 1.3-1.9 2.5-1.3 3.2 1.7 2.4 7.3 17.8 6.7 18.7-.3.6-.1 1.8.4 2.7 1.7 2.9 1.3-4.5-.5-9.2-2.4-6.2-2.8-8.3-.9-5 4.3 7.8 8.9 9.6 25.5 10 5.8.1 8.5.1 6-.1-9.2-.7-21.6-2.7-24.6-3.9-5-2.1-9.6-13.5-8-19.9.9-3.7 1.7-3.2 1.1.7zm64.5-1.2c0 .5-.7.9-1.5.9-1.5 0-2-1.2-.9-2.3.8-.8 2.4.1 2.4 1.4zm-161.7 1.1c1.2-1 1.5-.8 1.9 1.7.6 3.8-.7 7.1-2.7 7.1-3.3 0-5.5-2-5.5-5 0-3.1 2.9-5.7 4.2-3.7.5.8 1.1.7 2.1-.1zm79.9 2c-.7.7-1.2.8-1.2.2 0-.6.3-1.4.7-1.7.3-.4.9-.5 1.2-.2.2.3-.1 1.1-.7 1.7zm61.1.5c-.3.7-.6 1.3-.8 1.3-.2 0-.5-.6-.8-1.3-.3-.8.1-1.4.8-1.4.7 0 1.1.6.8 1.4zm-46.6 3.5c-.3.8-.6.5-.6-.6-.1-1.1.2-1.7.5-1.3.3.3.4 1.2.1 1.9zm38.3 2.2c0 .3-.4.8-1 1.1-.5.3-1 .1-1-.4 0-.6.5-1.1 1-1.1.6 0 1 .2 1 .4zm-69 12.3c0 .5-.7 1.6-1.4 2.6-1 1.3-2.1 1.6-4.7 1-1.9-.3-3.7-1.1-4.1-1.7-.5-.8-.8-.7-.8.1 0 .7-.5 1.3-1.1 1.3-2.5 0 1.4-2.9 4.4-3.3 5.9-.7 7.7-.7 7.7 0zm-14 .7c0 .2-.7.7-1.6 1-.8.3-1.2.2-.9-.4.6-1 2.5-1.4 2.5-.6zm14 5c0 .3-.4.8-1 1.1-.5.3-1 .1-1-.4 0-.6.5-1.1 1-1.1.6 0 1 .2 1 .4zm71.8 33.9c-.8 4.7-1.5 6-3.4 6.7-1.3.5-2.4 1.5-2.4 2.2 0 .9.3.8 1-.2.8-1.3 1-1.3 1 .2 0 .9-.4 2-1 2.3-.5.3-1 1.4-1 2.4s-.7 1.8-1.5 1.8-1.2-.4-.9-.9c.3-.4.1-.8-.5-.8-.7 0-.7-.8 0-2.7.7-2 .6-2.9-.3-3.6-.9-.6-.8-.7.5-.3 1.9.6 2.1.2.7-2.3-.9-1.8 1.6-9.1 3.2-9.1.4 0 .8-.7.8-1.6 0-.8.4-1.3.9-.9.5.3 1.3 0 1.7-.6 1.5-2.5 2.2 1.7 1.2 7.4zm-31.6-3.1c-1.2 1.2-3.5.1-2.7-1.2.3-.5 1.3-.6 2.1-.3 1 .4 1.2.9.6 1.5zm-20.4 5.5c.9 1.6 1.1 1.6 2.7 0 1.6-1.7 7.6-2.4 7.4-1-.4 2.2.3 2.5 1.5.7 1.2-1.5 1.8-1.7 3.4-.8 1 .7 3.1 1 4.6.7 2.5-.5 2.7-.3 2.4 2.3-.2 2.3-.8 2.9-2.8 3-1.4 0-3.3.4-4.2.8-1 .5-2.5.5-3.4.2-.8-.3-1.3-.2-1 .3.8 1.2-5.5 2-7.6 1-.9-.5-2.9-.9-4.3-.9-3.7 0-6.5-1.7-6.5-4 0-3.6 6.1-5.4 7.8-2.3zm24.4 1.5c-.7.7-1.2.8-1.2.2 0-1.4 1.2-2.6 1.9-1.9.2.3-.1 1.1-.7 1.7zm67.8 3.9c0 .6-.4.7-1 .4-.5-.3-1-1.1-1-1.6 0-.6.5-.7 1-.4.6.3 1 1.1 1 1.6zm-68.4 3.5c2.3 1.6 2.6 1.5 4.4-.1 1.9-1.7 2.1-1.7 4 0 1.4 1.3 1.8 2.5 1.3 4.9-.7 3.7-3.3 9.8-4.6 10.7-.5.4-.6 1.2-.3 1.8.4.6.2 1.1-.3 1.1-.6 0-1.1 1.7-1.1 3.7 0 2.8-.3 3.4-1 2.3-.9-1.4-1.1-1.3-1.4.9 0 .5-.5 1.3-.9 1.8-.5.4-.8.3-.7-.2.5-2.1-.1-2.5-2-1.5-1.1.6-2 1.8-2.1 2.8 0 1-.3 1.2-.6.4-.5-1.3-4.3-1.7-4.3-.3 0 .4-1.2.6-2.7.4-2-.3-2.4-.2-1.4.5.9.7 1 1.2.2 1.6-.6.4-1.4 0-1.7-.8-.3-.9-1-1.3-1.5-1-1.2.7-1.1-.3.2-2.9 1.2-2.2 1.2-2.2-1-.3-1.9 1.7-2.6 1.5-2.2-.7 0-.4-.4-.7-1-.7s-.9.6-.6 1.4c.3.8-.1 2-.9 2.6-1.1 1-1.4.9-1.5-.6 0-1.4-.2-1.5-.6-.4-.3.8-1.4 2.3-2.4 3.3-1.5 1.4-1.9 1.5-1.9.3 0-.7-.7-1.7-1.6-2-1.2-.5-1.4-.3-.8.7.5.7.2.5-.8-.5-1.2-1.3-1.8-1.5-2.1-.6-.3.8-.6.6-.6-.5-.1-.9-.5-1.7-1-1.7-.6 0-.6-1.2 0-3 .6-1.7 1.6-3 2.1-3 .6 0 .4.7-.3 1.7-1.3 1.5-1.2 1.5 1.1.2 1.4-.8 3-1.4 3.5-1.5.6 0 1.9-.5 2.9-.9 1.3-.6 2.3-.3 3.2 1 1.2 1.6 1.4 1.7 2 .2.9-2.5 2.6-2 1.9.5-.5 2-.4 2.1.7.8.7-.9 3.2-2.2 5.5-2.9 3.1-1 4-1.7 3.3-2.6-.5-.7-.7-1.5-.3-1.9.4-.4.1-1.1-.7-1.6-1.2-.7-1-1.4 1.2-3.7l2.7-2.9-5.5.3c-3.1.1-6.7-.2-8-.7-1.3-.6-2.6-.6-2.9 0-.7 1.1-5.3.6-6.7-.8-1.6-1.6 5-3.2 8-1.8 1.8.7 2.6.7 3.2-.4 1.1-1.7 9.3-4.7 13.3-4.9 1.5 0 3.9.6 5.3 1.5zm-37.1 22.6c-.7 1.7-4.5 1.9-4.6.3 0-.6 1-1.3 2.3-1.6 2.8-.7 3-.6 2.3 1.3zm-122.6 9.3c1.7 2 3.1 4.1 3.1 4.8 0 .7-.9-.3-2-2.1s-3.5-3.9-5.3-4.7c-2.5-1.1-2.8-1.4-1.1-1.5 1.3 0 3.5 1.5 5.3 3.5zm15.5 79.1c.4 1.1.1 1.4-1.1 1.2-.9-.2-1.8-.9-2.1-1.6-.6-1.8 2.5-1.5 3.2.4zm2.4 11.2c.4 1.4-2.7 1.6-4.7.3-.7-.5-1.1-1.4-.7-1.9.8-1.3 4.8-.1 5.4 1.6zm127.9-2.2c-.3.3-1.2.4-1.9.1-.8-.3-.5-.6.6-.6 1.1-.1 1.7.2 1.3.5zm14.1 1.1c-1 .2-2.6.2-3.5 0-1-.3-.2-.5 1.7-.5s2.7.2 1.8.5zm-26.4 5.4c.8.7-7.7 6.9-9.5 6.9-.4 0-1.6-1.5-2.7-3.4-2.7-4.6-1.4-5.7 5.7-5 3.1.4 6 1 6.5 1.5zm-120.7 5.3c-.3.8-.1 1.7.6 2 .7.2.5.5-.5.5-1.1.1-1.6-.6-1.5-1.9.1-1.1.5-2 1-2s.7.6.4 1.4z"/><path d="M285 228.9c0 .5.5 1.3 1 1.6.6.3 1 .2 1-.4 0-.5-.4-1.3-1-1.6-.5-.3-1-.2-1 .4zM61.3 44.6c-1 2.3-.9 2.4 2 2.4 1.7 0 3.9.8 4.9 1.7 1.7 1.5 1.9 1.5 3.3-.3 1.6-2.1 1.9-3.4.8-3.5-3.4-.4-6.9-1.2-8.2-1.9-1.2-.6-1.9-.2-2.8 1.6zM48 62.6c0 .3 1.3 1.9 2.8 3.5 1.9 2 3.3 2.8 4.5 2.3.9-.3 1.4-1.1 1.1-1.6-.4-.6-1-.5-1.5.3-.7 1.1-.9 1-.9-.3 0-.9-1.3-2.3-3-3.2-1.6-.8-3-1.2-3-1zM68.1 64.3c-1.7 1.9-1.9 2.6-.9 3.5 1.1.8 1.6.3 2.4-2.4.6-1.9 1-3.4.9-3.4-.1 0-1.1 1.1-2.4 2.3zM62 90.8c0 1.7-5.5 4.2-9.3 4.2-2.5 0-4.4 1-8 4.4-2.6 2.4-4.7 4.7-4.7 5.2s.5.2 1-.6c.8-1.3 1-1.2 1 .4 0 1.9 0 1.9 1.4.1 1.7-2.4 11.1-3.8 12.7-1.9.7.9 1.6 1 2.7.4 1-.5 2.9-1.1 4.3-1.4 1.7-.4 3.1-1.6 3.9-3.6.7-1.7 1.1-3.2.9-3.3-.2-.1-1.6-1.3-3.1-2.6-1.6-1.4-2.8-1.9-2.8-1.3zM37.7 115.8c-1.6 1.8-1.6 2 .2 3.6 1.8 1.7 1.9 1.7 2.6-.3.3-1.1.2-2.8-.2-3.6-.8-1.4-1.1-1.4-2.6.3zM40 129.5c0 .8.2 1.5.4 1.5s.6-.7 1-1.5c.3-.8.1-1.5-.4-1.5-.6 0-1 .7-1 1.5zM36.2 143c-1.2 2.3-2.2 5.1-2.2 6.3 0 2.9 1.6 1.2 3.5-3.8.8-2.2 1.3-2.9 1-1.5-.2 1.4-.5 3-.5 3.6 0 .6-1.2 2.3-2.7 3.8-2.4 2.4-2.5 2.8-1.1 4.2 1.4 1.4 1.8 1.1 4.2-3 1.5-2.5 3.4-4.6 4.3-4.6 1.4 0 1.3-.4-.5-2.3-1.1-1.2-2.5-3.2-2.9-4.5-.8-2.2-1-2.1-3.1 1.8zM57.7 143.3c-.9 1.4-2.6 2.9-3.8 3.2l-2.1.7 2.2 2c1.2 1.1 2.2 1.8 2.4 1.7 3.8-5.2 4.6-7 3.8-8.5-.7-1.3-1.1-1.2-2.5.9zM41 170c0 2.6-4.3 7.5-8 9-2.2.9-3 1.9-3 3.7 0 3.3-2.6 8-5.1 9.4-1.6.8-2 1.8-1.7 3.9.2 1.6.1 2.7-.3 2.5-.4-.3-1 1.6-1.3 4.3-.7 5.1-.8 6.8-.7 15.5.1 3.2-.3 6.7-.9 7.7-.6 1.1-.5 3.7.2 7.4.9 4.3.9 6.3 0 8.9-.7 1.8-1.2 4.5-1.2 5.9 0 3.4-1 5.9-2 5.3-1.3-.8-.6 1.8 1.3 4.5.9 1.3 1.7 3.1 1.7 4 0 1.2.2 1.2.9.2.6-.9.8-.5.9 1.5 0 1.5.4 4.3.7 6.1.5 2.3.1 4.7-1.5 8.4-2 4.6-2.1 5.6-1 8.9.7 2.1 1 5.1.7 6.8-.4 1.8 0 4.5.9 6.6 1.2 3 1.3 4.3.3 7.2-.7 2.1-.9 6.2-.5 10.6 1.3 15.1 1.2 17-.4 20.1-1.3 2.7-1.3 3.5-.2 5.9 1.8 3.7.8 7.9-2.6 10.8-2.5 2.3-2.6 2.3-.8.1 2.2-2.6 1.1-3-1.6-.5-1.5 1.3-2.5 1.5-5.6.7-2.8-.8-4.5-.6-6.9.6L0 357.5V402h14c13 0 14-.1 14-1.9 0-1 1.1-3 2.5-4.5 3-3.2 7.6-3.4 12.3-.6 3 1.9 3.5 1.9 5.5.5 1.2-.8 4.1-1.5 6.5-1.5 3.6 0 4.9.5 7.2 3 2.4 2.6 2.9 2.8 3.2 1.3.2-1-.4-3.3-1.4-5.1-.9-1.9-1.4-4-1.1-4.9.4-.9-.8-2.6-3-4.4-2-1.6-3.9-3.8-4.2-4.9-1.5-4.7-6.1-.8-5.6 4.9.3 4.6-2.9 9.1-6.6 9.1-8.8 0-15.8-9.6-11.2-15.4 1.8-2.3 1.9-3.1 1-5.8-.6-1.7-1.1-3.2-1.1-3.4 0-1.5 6.7-7.4 8.4-7.4 1.7-.1 1.5-.3-1.1-1.5-3.7-1.6-6.2-5-6.9-9.7-.5-2.7-.1-4 1.9-6.4l2.6-3-2.5-5.1c-2.4-4.8-2.5-5.3-1-8 .8-1.6 2.1-3.5 2.9-4.1 1.2-1 1.2-2 .1-6.1-.7-2.7-1.7-5.9-2.3-7-1.8-3.2-1.3-7.4 1.2-10.5 2.3-2.9 2.3-2.9.5-6.5-2.2-4.3-2.3-6.3-.3-10.1 1.1-2.1 1.2-3 .4-3-.7 0-.9-.3-.6-.7.4-.3 0-1.4-.8-2.3-1.9-2.1-3-10.2-1.7-12.5.7-1.3.4-3.5-1-7.7-2.2-6.3-1.9-11.7.7-13.8.9-.8 1.5-3 1.5-5.7 0-4.9 3.8-11.2 6.9-11.4.9 0 .2-.7-1.6-1.5-5.7-2.4-8.3-10.7-5-15.7 2.2-3.4 2.4-12.5.4-16.2-.9-1.7-1.7-4.2-1.7-5.6 0-2.9 5.3-10.9 7.3-10.9.7 0 1.4-1 1.4-2.2.1-1.3.7-2.4 1.3-2.6 1.5-.5 1.2-1.9-.5-2.6-1-.3-1.5.1-1.5 1.4zm-13 25.4c0 .2-.8 1-1.7 1.7-1.6 1.3-1.7 1.2-.4-.4 1.3-1.6 2.1-2.1 2.1-1.3zm-5.3 63.8c-.3.7-.5.2-.5-1.2s.2-1.9.5-1.3c.2.7.2 1.9 0 2.5zM56 175.8c0 .4 1.3 1.4 2.8 2.3 1.5.9 3.4 2.9 4.2 4.5 1.9 3.7 5.2 4.3 4.6.8-1-5.2-1.7-6.4-4.1-6.4-1.3 0-3.5-.4-4.9-1-1.4-.5-2.6-.6-2.6-.2zM56.8 218.1c-2.5 2.8-2.5 2.9-.5 2.3 3-.9 4.7-2.4 4.7-4 0-2.1-1.2-1.6-4.2 1.7zM306.1 258.1c.1 4.7 2.5 8.8 8.1 13.8l5.6 5.1 5.1-6.7c4.6-6.2 7.1-11.7 5.8-13-.3-.2-6-.7-12.6-1l-12.1-.6.1 2.4zM394 272.6c-.8.2-10.7 1.2-21.9 2.3-11.2 1.1-20.7 2.3-21.1 2.8-2.3 2.4 7.7 16.3 11.8 16.3 1.1 0 3.1.9 4.6 2.1 2.8 2.2 8.7 4.1 19.6 6.4 3.6.7 8.4 2 10.8 2.9l4.2 1.5V272l-3.2.1c-1.8.1-4 .3-4.8.5z"/><path d="M53.6 280.9c-.4.5-.2 1.9.2 3.1.8 2.1.8 2.1 2.6.1 1.7-1.9 1.7-2-.3-3-1.1-.7-2.2-.7-2.5-.2zM51.3 297.2c-.7.9-.4 2.2 1.4 4.7 1.2 1.9 2.3 2.9 2.3 2.3 0-.6.2-1.6.5-2.4.2-.7-.3-2.3-1.3-3.6-1.5-1.9-2-2.1-2.9-1zM361.5 302c-.4.6.3 1 1.4 1 2.5 0 2.7-.6.6-1.3-.8-.4-1.7-.2-2 .3zM89.4 304.1c-.8 1.4.8 3 2.2 2.1.9-.5.8-1-.2-1.9-.9-.9-1.5-1-2-.2zM391.7 314.2c.6 1.1 6.1 1 6.8-.2.4-.6-1-.9-3.4-.7-2.1.1-3.7.5-3.4.9zM19.5 323.9c-.3.5-.1 1.2.5 1.6.5.3 1-.1 1-.9 0-1.8-.6-2.1-1.5-.7zM50.1 342.9c1.6 2.5 2.5 2.7 3.3.6.3-.8.1-1.5-.3-1.5-.5 0-1.7-.3-2.6-.6-1.5-.6-1.5-.4-.4 1.5zM254.8 347.7c.7.3 1.6.2 1.9-.1.4-.3-.2-.6-1.3-.5-1.1 0-1.4.3-.6.6zM247.5 352c-.3.5-.1 1 .4 1 .6 0 1.1-.5 1.1-1 0-.6-.2-1-.4-1-.3 0-.8.4-1.1 1zM53 353.8c0 1.1.7 2.3 1.6 2.6 2.4.9 2.5.4.3-2.3-1.8-2.2-1.9-2.2-1.9-.3zM385.7 357.4c-.3.7.4 1.3 1.4 1.3 2.6.2 3.3-1.4 1-2-1.1-.3-2.2.1-2.4.7zM361.6 359.5c-.9 2.6-.7 3.2.5 1.2.6-1 .9-2.1.6-2.3-.2-.3-.7.2-1.1 1.1zM375.3 360.1c1.1.7 2.3.7 3.5 0 1.4-.9 1.1-1-1.8-1-2.9 0-3.2.1-1.7 1zM376.3 362.7c-.7.2-1.3 1.1-1.3 1.9 0 .8-.6 1.4-1.2 1.4-.9 0-1 .2-.2.8.7.4 1.3 1.6 1.5 2.6.2 1 1.3 2.4 2.4 3 1.1.6 2.2 1.2 2.5 1.4.3.2-1 1.6-2.9 3.1-3.2 2.6-3.3 2.8-1 2.7 3.6-.1 5.8-2.5 5.4-5.7-.3-2 0-2.9 1-2.9.8 0 2-.9 2.7-1.9.8-1.4 1.6-1.7 2.4-1 .8.6 2.7.2 5.8-1.4 2.5-1.3 4.4-2.6 4.2-2.8-.3-.3.3-.5 1.3-.5 1.7 0 1.6.4-.6 3.3-2.3 2.9-5.4 4.8-3.8 2.3.3-.6-.1-.7-1-.3-1.2.4-1.3.8-.4 1.3 1.8 1.2.3 3.9-2.6 5-1.6.6-2.3 1.4-1.9 2.2.4.7.3.8-.4.4s-1.2-.2-1.2.3c0 .6-.7 1.1-1.5 1.1s-1.4.5-1.2 1.2c.1.7-.4 1.2-1.2 1.3-.8 0-1.6.7-1.8 1.5-.4 1.3-.3 1.3.6 0 .6-.8 1.1-1.1 1.1-.6 0 .6-.9 1.9-2 3.1-1.5 1.6-7 14.1-7 16 0 .3 1.1.5 2.4.5 1.6 0 2.7-.7 3.1-2 .3-1 1.9-3 3.5-4.3 2.1-1.8 2.6-2.7 1.7-3.6-.8-.8-.5-1.1 1.1-1.1 1.2 0 2.2-.5 2.2-1.1 0-.7-1.2-.8-3.2-.4-2.5.5-2.9.4-1.8-.4.8-.6 1.1-1.1.7-1.1-1.4 0 9.5-10 10.9-10 .8 0 2.3-.9 3.4-2s2.3-2 2.8-2c.4 0 .7-2.6.7-5.8v-5.7l-3.2-.3c-1.9-.2-3.3.1-3.3.7s-.5 1.1-1.1 1.1c-.5 0-.7-.4-.4-1 .3-.6-.1-.7-1-.4-.8.4-2.2 1.8-3.1 3.3l-1.5 2.6.5-3.3c.7-3.9.4-3.9-2.7-.7-1.6 1.8-2.9 2.4-4.2 1.9-1.8-.7-1.8-.8.1-1.5 1.7-.7 1.7-.8.1-.8-1-.1-1.5-.6-1.2-1.1.6-1-2-1.2-4.2-.3zM393 365c0 .5-.5 1-1.1 1-.5 0-.7-.5-.4-1 .3-.6.8-1 1.1-1 .2 0 .4.4.4 1zM244.5 369.4c-3.4 3.4-4.7 7.8-2.5 9.1.6.3 1 .1 1-.4 0-.6.9-1.1 2-1.1 2.5 0 2.6 1.7.3 2.3-1.4.4-1.3.5.4.6 3.8.2 8.2-7.6 5.4-9.4-.5-.3-1.2-.1-1.5.4-.3.5-1.5.7-2.6.4-1.1-.3-1.7-.9-1.5-1.4.3-.4 1.3-.5 2.1-.2 1.7.6 3.6-1.5 2.8-2.9-.9-1.5-2.3-.8-5.9 2.6z"/><path d="M388 373.2c0 .5-.5.6-1.1.2-.6-.3-1.5 0-2 .7-1.6 2.6-.9 2.9 2.6 1.2 3.7-1.8 4.5-3 2-3-.8 0-1.5.4-1.5.9zM368.3 381.6c-.3.8-1 1.1-1.5.8-.6-.4-1.4 0-1.9.7-.7 1.1-1.1 1-2.3-.6-1.4-2-1.4-2-5.6.2-4.2 2.1-4.2 2.1-1.9 3.4 2.4 1.3 2.4 1.3-1.1 2-2.1.5-3.7.3-4.1-.3-1-1.6-5.1.2-8.1 3.5-3.3 3.6-3.5 4.1-.8 2.5 1.1-.7 2-1.6 2-1.9 0-.8 7.8.6 8.8 1.5.3.4 0 1.1-.8 1.6-1.2.8-1.1 1 .5 1.1 1.1 0 1.4.3.7.6-.6.2-.9.9-.6 1.5.3.5-.3 1.2-1.5 1.5-4.7 1.2-1.5 2.3 6.9 2.3 5 0 8.9-.3 8.8-.8-.3-1.4 2.5-6.1 3.3-5.6.5.3.9-.6.9-2s.5-2.6 1.1-2.6c.8 0 .8-.4 0-1.4-.9-1.1-.6-1.7 1.9-2.7 3.9-1.8 3.9-3.3-.1-2.5-2.7.5-2.9.4-1.5-1 2-2 2-2.1-.5-2.7-1.2-.3-2.2 0-2.6.9z"/><path d="M375 381c-1.3.8-1.2 1 .3 1 .9 0 1.7-.5 1.7-1 0-1.2-.1-1.2-2 0zM336.1 394.5c-.7 1.6-1.7 3.8-2.2 4.7-.5 1-.9 2-.9 2.3 0 1 2.2.4 3.6-1 .9-.8 3-1.5 4.7-1.6 1.8 0 2.7-.3 2-.5-.7-.3-.9-1.2-.6-2 .6-1.7.2-1.7-3.2-.2-1.4.6-2.5 1.6-2.5 2.1 0 .6-.3.7-.6.4-.4-.4-.1-1.3.5-2.1.7-.8 1.1-2.3.9-3.3-.4-1.4-.7-1.2-1.7 1.2z"/></svg>